<svg width="215" height="215" viewBox="0 0 215 215" fill="none" xmlns="http://www.w3.org/2000/svg">
<path fill-rule="evenodd" clip-rule="evenodd" d="M104.317 0.0632026C103.277 0.0998026 101.819 0.175993 101.076 0.232403C100.333 0.288203 99.0572 0.373123 98.24 0.420393C96.4782 0.522983 93.858 0.849013 91.308 1.28408C90.2931 1.45758 89.1591 1.63429 88.7869 1.67779C88.4164 1.72069 87.3825 1.91627 86.4917 2.11126C82.7333 2.93467 81.4439 3.24082 80.1023 3.62594C79.5068 3.79729 78.7756 3.99119 78.4787 4.05725C78.1817 4.12335 77.4324 4.34085 76.8137 4.54067C76.1942 4.74048 75.4051 4.99132 75.0577 5.09874C73.9023 5.45539 72.2712 6.01346 71.885 6.1848C71.674 6.2783 71.3705 6.37978 71.2092 6.41093C71.0479 6.44153 70.3292 6.70689 69.6112 6.99962C68.8933 7.29235 68.1167 7.58992 67.8851 7.66136C67.6543 7.73286 66.9372 8.03305 66.2921 8.32903C65.6469 8.62497 65.0729 8.86723 65.0158 8.86723C64.9587 8.86723 64.3649 9.12983 63.6974 9.45158C63.0299 9.77283 62.4485 10.036 62.4055 10.036C62.2988 10.036 56.6356 12.9026 56.4677 13.0417C56.3924 13.1035 55.8969 13.3812 55.3659 13.6589C54.8349 13.9366 54.1873 14.3072 53.9268 14.4823C53.6662 14.6569 53.4181 14.8003 53.3743 14.8003C53.2817 14.8003 51.7076 15.7789 51.5315 15.946C51.4662 16.0078 51.3652 16.0588 51.3065 16.0588C51.2478 16.0588 50.8152 16.3149 50.3454 16.6287C48.51 17.8528 47.869 18.2691 47.5167 18.4677C47.3157 18.5811 47.0494 18.7681 46.9245 18.8835C46.8004 18.9984 46.2611 19.389 45.726 19.751C45.19 20.113 44.6507 20.5018 44.5275 20.6162C44.4051 20.7301 44.2761 20.8231 44.2413 20.8231C44.2066 20.8231 43.9551 21.0057 43.683 21.2286C43.4109 21.4515 42.9651 21.7802 42.693 21.9586C42.4209 22.1374 42.157 22.3335 42.1074 22.3947C42.057 22.4559 41.3886 22.999 40.6219 23.6016C39.8543 24.2037 39.0041 24.894 38.7319 25.1346C38.4598 25.3752 38.0239 25.7383 37.7642 25.9418C37.5037 26.1449 37.2911 26.3436 37.2911 26.3833C37.2911 26.4236 37.0984 26.5939 36.8635 26.7626C36.6286 26.9312 36.2274 27.2717 35.9727 27.5194C35.7179 27.767 35.1977 28.2531 34.8172 28.599C33.5757 29.7286 30.2441 33.0625 28.934 34.4875C28.2293 35.2534 27.408 36.1446 27.1078 36.4674C26.8075 36.7902 26.5189 37.1323 26.4651 37.2279C26.4122 37.323 26.1317 37.6437 25.8431 37.9407C25.5536 38.2371 25.317 38.5218 25.3162 38.5734C25.3154 38.6255 25.2104 38.7662 25.083 38.8866C24.9556 39.0068 24.528 39.5129 24.1318 40.0102C23.7365 40.5076 23.3245 41.0162 23.217 41.1398C23.1095 41.2634 22.9143 41.526 22.7828 41.7237C22.6521 41.9218 22.3949 42.2452 22.2129 42.4428C22.031 42.6411 21.8192 42.9241 21.7439 43.0723C21.6678 43.2206 21.495 43.4634 21.3585 43.6116C21.2229 43.7599 20.8771 44.225 20.5901 44.6456C20.3031 45.0657 19.9392 45.5716 19.7804 45.7693C19.6216 45.9669 19.4289 46.25 19.3519 46.3982C19.275 46.547 19.0013 46.9515 18.744 47.2974C18.486 47.6433 18.2295 48.0279 18.175 48.1514C18.1196 48.2749 18.0476 48.3964 18.017 48.421C17.9169 48.4984 16.0063 51.4961 15.6382 52.1519C15.4993 52.399 15.2123 52.869 14.9997 53.1961C14.7871 53.5232 14.587 53.8975 14.5539 54.0286C14.5216 54.1592 14.4596 54.2875 14.4166 54.3138C14.3736 54.3407 14.1883 54.6334 14.0047 54.9648C13.8211 55.2963 13.5978 55.6642 13.5076 55.7824C13.4174 55.9 13.3438 56.0628 13.3438 56.1433C13.3438 56.2239 13.2479 56.4311 13.1313 56.6031C12.7467 57.1692 9.74093 63.2038 9.74259 63.4084C9.74259 63.4686 9.62596 63.7522 9.48286 64.0379C9.10158 64.8017 8.57224 66.0049 8.57224 66.108C8.57224 66.1918 8.36048 66.6957 7.92045 67.6587C7.81873 67.8811 7.58715 68.488 7.40519 69.0068C7.22322 69.5263 6.88987 70.4367 6.66489 71.0297C6.20006 72.2532 5.40853 74.5854 5.13807 75.5244C4.85023 76.5239 4.06614 79.1719 3.92719 79.6081C3.85769 79.8273 3.80146 80.1001 3.80146 80.214C3.80146 80.3284 3.62281 81.0798 3.40528 81.8839C2.97188 83.4827 2.8536 84.0269 2.18943 87.4354C0.17626 97.7792 -0.243097 109.343 1.02155 119.663C1.17292 120.899 1.33169 122.283 1.37305 122.738C1.46075 123.674 1.77505 125.501 2.23658 127.754C2.40862 128.594 2.58726 129.561 2.63441 129.903C2.68151 130.244 2.94457 131.397 3.22083 132.465C3.49626 133.532 3.75929 134.608 3.80561 134.855C3.9214 135.479 4.87506 138.688 5.47471 140.474C5.74931 141.29 6.05533 142.241 6.15376 142.586C6.33159 143.207 6.9056 144.743 7.23396 145.48C7.32576 145.688 7.40186 145.924 7.40186 146.005C7.40186 146.148 7.7327 146.969 8.16114 147.89C8.27611 148.138 8.4614 148.603 8.57389 148.924C8.68638 149.245 8.99488 149.967 9.26038 150.526C9.52588 151.087 9.7426 151.593 9.74342 151.651C9.74342 151.708 10.0271 152.32 10.3737 153.01C10.7194 153.7 11.0031 154.301 11.0031 154.345C11.0031 154.389 11.2661 154.909 11.5887 155.5C11.9104 156.09 12.1735 156.623 12.1735 156.684C12.1735 156.743 12.3397 157.076 12.544 157.42C12.7475 157.766 13.1155 158.433 13.3612 158.902C14.0072 160.137 14.7019 161.355 15.2503 162.214C15.5142 162.627 15.7573 163.038 15.7904 163.128C15.8243 163.217 16.0849 163.649 16.3694 164.085C16.6539 164.523 16.9848 165.062 17.1039 165.285C17.223 165.508 17.3934 165.77 17.481 165.869C17.5695 165.968 17.9152 166.474 18.2502 166.993C18.5844 167.512 18.9533 168.05 19.0699 168.189C19.1857 168.327 19.3461 168.575 19.4247 168.74C19.5025 168.906 19.701 169.198 19.8648 169.389C20.0277 169.579 20.2791 169.917 20.423 170.14C20.8374 170.782 22.4801 172.954 22.6926 173.142C22.8002 173.236 22.887 173.361 22.887 173.421C22.887 173.479 23.1525 173.827 23.4759 174.193C23.8001 174.559 24.1136 174.945 24.174 175.051C24.2873 175.253 26.2691 177.618 27.2872 178.768C29.1218 180.839 32.2548 184.048 34.4682 186.122C35.2175 186.824 35.8718 187.399 35.9214 187.399C35.971 187.399 36.0339 187.456 36.0604 187.526C36.0869 187.595 36.7088 188.164 37.4425 188.792C38.1761 189.418 39.0173 190.14 39.3117 190.396C39.6054 190.651 39.9519 190.926 40.081 191.005C40.21 191.085 40.5954 191.398 40.9378 191.702C41.2803 192.005 41.6061 192.254 41.6632 192.254C41.7186 192.254 41.8419 192.341 41.9362 192.447C42.1247 192.66 44.3571 194.356 44.8013 194.624C44.9543 194.716 45.3083 194.976 45.5895 195.203C45.8691 195.429 46.2363 195.698 46.4034 195.799C47.0816 196.211 49.1428 197.591 49.3181 197.75C49.4215 197.845 49.7126 198.032 49.9641 198.166C50.2155 198.301 50.7713 198.644 51.1973 198.928C51.6233 199.213 52.0054 199.445 52.0468 199.445C52.0873 199.445 52.4206 199.641 52.7862 199.882C53.1518 200.122 53.7349 200.47 54.0814 200.655C54.428 200.84 54.9987 201.17 55.3494 201.387C55.7001 201.605 56.0524 201.782 56.1318 201.782C56.2112 201.782 56.3022 201.824 56.3337 201.875C56.4098 201.997 57.9201 202.799 60.293 203.975C60.5412 204.098 61.2789 204.464 61.9324 204.788C62.5866 205.112 63.197 205.379 63.288 205.379C63.379 205.379 63.4923 205.414 63.5386 205.458C63.6627 205.575 65.7304 206.515 66.2457 206.69C66.4864 206.772 66.9355 206.954 67.2441 207.095C68.1398 207.504 68.8776 207.805 68.9851 207.805C69.0405 207.805 69.7494 208.068 70.5599 208.389C71.3713 208.711 72.0975 208.974 72.1753 208.974C72.2531 208.974 72.6699 209.111 73.1017 209.278C74.5086 209.822 78.5151 211.035 80.6846 211.574C83.9823 212.393 84.6655 212.556 85.1411 212.636C85.438 212.685 86.6943 212.932 87.9317 213.182C89.1699 213.434 90.5272 213.683 90.9482 213.736C91.3684 213.79 92.5842 213.952 93.6487 214.096C103.305 215.408 112.887 215.365 123.313 213.962C125.545 213.662 126.324 213.536 127.769 213.243C128.587 213.077 129.701 212.854 130.245 212.748C130.79 212.642 132.046 212.357 133.036 212.113C134.027 211.869 135.099 211.605 135.422 211.526C136.641 211.226 137.396 211.018 138.618 210.644C139.311 210.432 140.161 210.175 140.509 210.074C141.53 209.774 144.763 208.654 145.64 208.298C146.086 208.116 146.737 207.872 147.087 207.757C147.436 207.643 147.943 207.448 148.212 207.326C149.278 206.839 149.763 206.637 149.857 206.637C150.2 206.637 158.685 202.547 159.103 202.18C159.178 202.114 159.442 201.972 159.688 201.864C159.933 201.757 160.526 201.432 161.004 201.141C161.482 200.852 161.913 200.614 161.96 200.614C162.006 200.614 162.344 200.418 162.711 200.178C163.076 199.938 163.619 199.609 163.916 199.446C164.213 199.283 164.76 198.94 165.131 198.683C165.502 198.426 165.869 198.193 165.947 198.165C166.025 198.137 166.442 197.869 166.873 197.567C167.305 197.265 167.68 197.018 167.705 197.018C167.731 197.018 167.995 196.846 168.294 196.636C168.591 196.425 169.05 196.113 169.312 195.939C170.184 195.362 172.207 193.889 172.332 193.738C172.4 193.656 172.6 193.515 172.777 193.424C172.954 193.334 173.218 193.146 173.366 193.004C173.513 192.864 173.882 192.566 174.188 192.343C174.745 191.937 176.289 190.698 176.983 190.102C177.188 189.926 177.666 189.518 178.045 189.197C180.063 187.487 180.888 186.712 184.015 183.597C186.66 180.96 187.273 180.323 188.444 178.994C188.791 178.599 189.303 178.026 189.581 177.723C189.859 177.42 190.153 177.07 190.234 176.945C190.317 176.821 190.626 176.438 190.924 176.095C191.444 175.494 192.174 174.59 192.975 173.559C193.184 173.289 193.467 172.946 193.602 172.797C193.739 172.648 193.85 172.491 193.85 172.447C193.85 172.404 194.097 172.062 194.4 171.686C194.702 171.312 194.972 170.944 195 170.871C195.028 170.797 195.116 170.671 195.194 170.59C195.404 170.372 196.216 169.231 196.35 168.966C196.415 168.839 196.631 168.537 196.832 168.294C197.032 168.051 197.281 167.69 197.381 167.49C197.482 167.291 197.593 167.108 197.628 167.083C197.719 167.018 198.621 165.664 198.621 165.593C198.621 165.56 198.848 165.211 199.125 164.816C199.402 164.421 199.686 163.971 199.755 163.815C199.825 163.659 200.144 163.127 200.463 162.633C200.783 162.139 201.046 161.692 201.049 161.639C201.051 161.587 201.208 161.305 201.4 161.01C201.591 160.716 201.96 160.071 202.221 159.577C202.481 159.082 202.734 158.626 202.785 158.565C202.835 158.502 203.127 157.956 203.435 157.351C203.744 156.745 204.119 156.008 204.271 155.711C204.9 154.482 205.742 152.713 205.918 152.25C206.021 151.978 206.158 151.674 206.222 151.576C206.362 151.358 206.994 149.91 206.994 149.808C206.994 149.766 207.11 149.48 207.253 149.172C207.972 147.607 208.088 147.336 208.16 147.041C208.203 146.865 208.506 146.066 208.832 145.264C209.158 144.463 209.425 143.759 209.425 143.699C209.425 143.64 209.684 142.84 210.001 141.92C210.767 139.702 211.666 136.82 211.76 136.279C211.801 136.04 212.043 135.096 212.296 134.181C212.55 133.266 212.802 132.275 212.857 131.979C212.912 131.682 213.093 130.832 213.258 130.091C213.671 128.239 214.155 125.671 214.274 124.697C214.328 124.252 214.454 123.363 214.554 122.719C215.346 117.626 215.379 116.972 215.344 106.898C215.31 97.1068 215.27 96.4459 214.413 91.3939C214.342 90.9754 214.242 90.2707 214.192 89.8282C214.095 88.9655 213.745 87.1442 213.259 84.964C213.094 84.2221 212.91 83.3528 212.85 83.031C212.79 82.7094 212.557 81.7791 212.331 80.9632C212.106 80.1473 211.85 79.1563 211.762 78.7605C211.674 78.3651 211.379 77.3537 211.106 76.5132C210.833 75.6731 210.58 74.8438 210.545 74.6703C210.51 74.4973 210.279 73.8098 210.033 73.1422C209.786 72.475 209.528 71.7263 209.459 71.4792C209.327 71.0012 208.539 68.9338 208.432 68.7823C208.398 68.7328 208.28 68.4139 208.171 68.0738C208.064 67.7339 207.781 67.026 207.543 66.5006C207.307 65.9759 207.06 65.3845 206.997 65.1868C206.934 64.9886 206.643 64.3344 206.353 63.7328C206.062 63.1313 205.824 62.5946 205.824 62.5404C205.824 62.454 205.185 61.1256 204.374 59.5233C203.361 57.5231 203.045 56.9215 202.658 56.2614C202.419 55.8521 202.222 55.4847 202.222 55.445C202.222 55.4052 202.016 55.0325 201.762 54.6162C201.51 54.1999 201.161 53.5994 200.989 53.2809C200.817 52.9624 200.477 52.4006 200.234 52.0321C199.991 51.6641 199.792 51.329 199.792 51.2876C199.792 51.2462 199.539 50.837 199.228 50.3783C198.919 49.9201 198.62 49.4437 198.563 49.3201C198.508 49.1966 198.25 48.812 197.992 48.4661C197.734 48.1196 197.483 47.7356 197.436 47.6121C197.388 47.4886 197.276 47.3065 197.187 47.2077C197.099 47.1089 196.711 46.5625 196.327 45.9937C195.942 45.4255 195.578 44.9195 195.518 44.8701C195.458 44.8206 195.27 44.5736 195.102 44.3206C194.932 44.0676 194.583 43.5826 194.325 43.242C194.066 42.9015 193.673 42.38 193.453 42.0835C193.231 41.787 192.977 41.4631 192.888 41.3642C192.798 41.2654 192.608 41.0135 192.467 40.8046C192.324 40.5956 192.069 40.2921 191.899 40.1305C191.729 39.9683 191.528 39.7201 191.452 39.5783C191.376 39.4365 191.084 39.0632 190.803 38.7496C190.523 38.4354 190.031 37.8687 189.708 37.4895C189.387 37.1102 188.899 36.5527 188.626 36.2509C188.352 35.9484 187.765 35.2969 187.321 34.8039C186.111 33.461 183.642 30.958 181.962 29.3745C180.583 28.0732 180.151 27.6826 178.815 26.5262C178.543 26.2904 178.307 26.0632 178.289 26.0213C178.273 25.9794 178.091 25.828 177.885 25.6851C177.679 25.5422 177.268 25.199 176.972 24.9224C176.676 24.6452 176.398 24.4191 176.355 24.4191C176.313 24.4191 175.99 24.1559 175.637 23.8346C175.284 23.5135 174.963 23.2503 174.921 23.2503C174.88 23.2503 174.758 23.1654 174.648 23.0618C174.538 22.9581 173.983 22.5262 173.413 22.1014C172.844 21.6766 172.353 21.2924 172.322 21.2468C172.291 21.2017 172.043 21.0169 171.771 20.8365C171.498 20.656 171.031 20.3267 170.733 20.1038C170.128 19.6532 168.884 18.7862 168.152 18.3061C167.889 18.1331 167.415 17.8211 167.1 17.6126C165.86 16.793 164.7 16.0587 164.644 16.0587C164.611 16.0587 164.292 15.8606 163.936 15.6183C163.577 15.376 163.002 15.0253 162.655 14.8389C162.309 14.652 161.904 14.4151 161.757 14.3125C161.61 14.21 161.205 13.9753 160.857 13.7916C159.582 13.1158 159.368 12.9977 158.95 12.7329C158.716 12.5846 158.456 12.4632 158.373 12.4632C158.291 12.4632 158.126 12.388 158.009 12.2961C157.559 11.947 151.924 9.20986 150.952 8.86876C150.704 8.78176 150.056 8.50946 149.511 8.26344C148.967 8.01797 148.298 7.74458 148.026 7.65649C147.753 7.56789 147.369 7.42445 147.171 7.33689C146.254 6.93351 145.221 6.5382 144.604 6.35396C144.234 6.24331 143.767 6.08164 143.569 5.99462C142.88 5.69114 137.996 4.13832 137.357 4.01961C137.11 3.97351 136.543 3.82679 136.097 3.69412C131.537 2.3368 122.261 0.685153 117.686 0.416593C116.869 0.368193 115.674 0.288753 115.03 0.239873C111.93 0.00300255 107.888 -0.0635574 104.317 0.0632026ZM142.759 54.9847C152.31 56.0428 159.72 63.6545 160.455 73.1626C160.517 73.9533 160.538 83.1841 160.517 100.515L160.487 126.674L160.291 128.025C159.433 133.953 157.56 138.73 154.303 143.298C152.691 145.56 153.13 145.108 129.885 168.396C126.931 171.356 125.98 172.255 125.535 172.511C122.579 174.208 118.957 172.901 117.721 169.69L117.461 169.016L117.412 138.092C117.358 104.263 117.405 107.089 116.871 105.37C115.852 102.093 112.801 99.2044 109.467 98.3599C107.834 97.9463 108.371 97.9538 76.7178 97.9538C49.4695 97.9538 46.4911 97.9397 45.9923 97.8107C42.4018 96.886 40.8435 92.5891 42.9783 89.5032C43.4787 88.7819 69.0562 63.3971 70.3159 62.3734C75.6417 58.0431 82.0964 55.4633 88.8779 54.9552C89.9573 54.8746 142.02 54.9031 142.759 54.9847Z" fill="white"/>
</svg>
